<svg id="Flat" height="512" viewBox="0 0 512 512" width="512" xmlns="http://www.w3.org/2000/svg"><circle cx="104" cy="328" fill="#596063" r="80"/><circle cx="104" cy="328" fill="#e9eef2" r="48"/><path d="m104.006 320a7.984 7.984 0 0 1 -6.406-3.2l-28.8-38.4a104.648 104.648 0 0 1 -20.8-62.4 40.045 40.045 0 0 1 40-40h48a8 8 0 0 1 0 16h-48a24.028 24.028 0 0 0 -24 24 88.551 88.551 0 0 0 17.6 52.8l28.8 38.4a8 8 0 0 1 -6.394 12.8z" fill="#7e8589"/><circle cx="408" cy="328" fill="#596063" r="80"/><circle cx="408" cy="328" fill="#e9eef2" r="48"/><path d="m408 336h-144a8 8 0 0 1 -5.268-1.979l-128-112a8 8 0 0 1 -2.732-6.021v-32a8 8 0 0 1 8-8h168a8 8 0 0 1 5.862 2.557l104 112a8 8 0 0 1 2.138 5.443v32a8 8 0 0 1 -8 8zm-140.994-16h132.994v-20.858l-99.488-107.142h-156.512v20.37z" fill="#2978b8"/><path d="m264.005 336a8.006 8.006 0 0 1 -7.713-10.144l39.708-142.947v-30.909a8 8 0 0 1 16 0v32a8.036 8.036 0 0 1 -.292 2.142l-40 144a8 8 0 0 1 -7.703 5.858z" fill="#3397e8"/><path d="m104 336a8.007 8.007 0 0 1 -7.7-10.2l31.7-110.92v-62.88a8 8 0 0 1 16 0v64a7.963 7.963 0 0 1 -.308 2.2l-32 112a8 8 0 0 1 -7.692 5.8z" fill="#3397e8"/><circle cx="408" cy="328" fill="#6ed2f0" r="16"/><circle cx="104" cy="328" fill="#6ed2f0" r="16"/><circle cx="264" cy="328" fill="#e9eef2" r="32"/><path d="m264 400a8 8 0 0 1 -8-8v-64a8 8 0 0 1 16 0v64a8 8 0 0 1 -8 8z" fill="#7e8589"/><path d="m288 400h-48a8 8 0 0 1 0-16h48a8 8 0 0 1 0 16z" fill="#596063"/><path d="m152 160h-48a24.028 24.028 0 0 1 -24-24v-2.446a23.923 23.923 0 0 1 20.054-23.673l82.631-13.773a8 8 0 0 1 2.63 15.784l-82.63 13.771a7.975 7.975 0 0 0 -6.685 7.891v2.446a8.009 8.009 0 0 0 8 8h48a8 8 0 0 1 0 16z" fill="#e9eef2"/><path d="m280 120h48a16 16 0 0 1 16 16v16a0 0 0 0 1 0 0h-80a0 0 0 0 1 0 0v-16a16 16 0 0 1 16-16z" fill="#7e8589"/></svg>