<svg id="Flat" height="512" viewBox="0 0 512 512" width="512" xmlns="http://www.w3.org/2000/svg"><path d="m62.627 209.373-38.627 38.627v112a16 16 0 0 0 16 16h432a16 16 0 0 0 16-16v-112l-38.627-38.627a32 32 0 0 0 -22.628-9.373h-341.49a32 32 0 0 0 -22.628 9.373z" fill="#3397e8"/><path d="m342.03 72h-172.06a64 64 0 0 0 -62.089 48.478l-19.881 79.522h336l-19.881-79.522a64 64 0 0 0 -62.089-48.478z" fill="#2978b8"/><path d="m343.015 104h-174.03a32 32 0 0 0 -31.045 24.239l-17.94 71.761h272l-17.94-71.761a32 32 0 0 0 -31.045-24.239z" fill="#7e8589"/><path d="m40 376h96a0 0 0 0 1 0 0v48a16 16 0 0 1 -16 16h-64a16 16 0 0 1 -16-16v-48a0 0 0 0 1 0 0z" fill="#596063"/><path d="m24 344h464a0 0 0 0 1 0 0v16a16 16 0 0 1 -16 16h-432a16 16 0 0 1 -16-16v-16a0 0 0 0 1 0 0z" fill="#2978b8"/><path d="m332.468 328h-152.936a16 16 0 0 0 -15.179 10.94l-12.353 37.06h208l-12.353-37.06a16 16 0 0 0 -15.179-10.94z" fill="#7e8589"/><path d="m184 296h144v32h-144z" fill="#596063"/><path d="m216 296h80v48h-80z" fill="#e9eef2"/><path d="m56 264h80a0 0 0 0 1 0 0v32a16 16 0 0 1 -16 16h-48a16 16 0 0 1 -16-16v-32a0 0 0 0 1 0 0z" fill="#ffd33a"/><path d="m376 264h80a0 0 0 0 1 0 0v32a16 16 0 0 1 -16 16h-48a16 16 0 0 1 -16-16v-32a0 0 0 0 1 0 0z" fill="#ffd33a"/><path d="m64 376h16v64h-16z" fill="#464c4f"/><path d="m96 376h16v64h-16z" fill="#464c4f"/><path d="m376 376h96a0 0 0 0 1 0 0v48a16 16 0 0 1 -16 16h-64a16 16 0 0 1 -16-16v-48a0 0 0 0 1 0 0z" fill="#596063"/><path d="m400 376h16v64h-16z" fill="#464c4f"/><path d="m432 376h16v64h-16z" fill="#464c4f"/><g fill="#2978b8"><path d="m136 264h240v32h-240z"/><path d="m56 296-32-16v-32l32 16z"/><path d="m456 296 32-16v-32l-32 16z"/></g><path d="m40 152h16a32 32 0 0 1 32 32v16a0 0 0 0 1 0 0h-48a16 16 0 0 1 -16-16v-16a16 16 0 0 1 16-16z" fill="#3397e8"/><path d="m456 152h16a16 16 0 0 1 16 16v16a16 16 0 0 1 -16 16h-48a0 0 0 0 1 0 0v-16a32 32 0 0 1 32-32z" fill="#3397e8"/></svg>