<svg id="Capa_1" enable-background="new 0 0 511.98 511.98" height="512" viewBox="0 0 511.98 511.98" width="512" xmlns="http://www.w3.org/2000/svg"><g><path d="m430.98 163.13v10.86l-22.58 10.68-152.42-89.3-152.42 89.3-22.58-21.54 175-102.53z" fill="#47232f"/><path d="m430.98 163.13v10.86l-22.58 10.68-152.42-89.3v-34.77z" fill="#361e28"/><path d="m287.98 75.99c0 17.67-14.33 32-32 32s-32-14.33-32-32c0-17.68 14.33-32.01 32-32.01s32 14.33 32 32.01z" fill="#804354"/><path d="m287.98 75.99c0 17.67-14.33 32-32 32v-64.01c17.67 0 32 14.33 32 32.01z" fill="#633441"/><path d="m127.978 221.991h-64.003v-32.002c0-17.674 14.328-32.002 32.002-32.002 17.674 0 32.002 14.328 32.002 32.002v32.002z" fill="#804354"/><path d="m447.985 221.991h-64.003v-32.002c0-17.674 14.328-32.002 32.002-32.002 17.674 0 32.002 14.328 32.002 32.002v32.002z" fill="#633441"/><path d="m511.98 242.11v195.77c-16.63 0-30.12 13.48-30.12 30.12h-451.74c0-16.64-13.49-30.12-30.12-30.12v-195.77c16.63 0 30.12-13.49 30.12-30.12h451.74c0 16.63 13.49 30.12 30.12 30.12z" fill="#6cdad5"/><path d="m511.98 242.11v195.77c-16.63 0-30.12 13.48-30.12 30.12h-225.88v-256.01h225.88c0 16.63 13.49 30.12 30.12 30.12z" fill="#3ab9c4"/><path d="m103.355 419.177c-24.882 0-45.125-20.243-45.125-45.125v-60.251c0-24.882 20.243-45.125 45.125-45.125s45.125 20.243 45.125 45.125v60.249c0 24.884-20.243 45.127-45.125 45.127zm0-120.5c-8.34 0-15.125 6.785-15.125 15.125v60.251c0 8.34 6.785 15.125 15.125 15.125s15.125-6.785 15.125-15.125v-60.249c0-8.342-6.785-15.127-15.125-15.127z" fill="#f5f1eb"/><path d="m195.73 419.177h-30v-150.5h45.125c24.882 0 45.125 20.243 45.125 45.125 0 24.883-20.243 45.126-45.126 45.126h-15.124zm0-90.249h15.124c8.341 0 15.126-6.786 15.126-15.126s-6.785-15.125-15.125-15.125h-15.125z" fill="#f5f1eb"/><g fill="#f5e7d5"><path d="m451.73 419.178h-26.552l-33.699-72.191v72.19h-30v-150.5h26.552l33.699 72.19v-72.189h30z"/><path d="m344.48 298.677v-30h-74.25v60.249 30 60.251h74.25v-30h-44.25v-30.251h30.125v-30h-30.125v-30.249z"/></g></g></svg>