<svg id="Flat" height="512" viewBox="0 0 512 512" width="512" xmlns="http://www.w3.org/2000/svg"><path d="m488 312v-96h-254.897l-33.103-192h-96l49.655 288h-129.655v96h146.207l13.793 80h96l-5.517-32h149.517v-96h-166.069l-8.276-48z" fill="#e9eef2"/><path d="m216 360h-120a8 8 0 0 1 0-16h110.557l-14.449-86.685a8 8 0 0 1 7.892-9.315h216a8 8 0 0 1 0 16h-206.557l14.449 86.685a8 8 0 0 1 -7.892 9.315z" fill="#ffb632"/><path d="m423.058 88.007a63.994 63.994 0 0 0 -31.058 119.409l12.707 44.938a16 16 0 0 0 15.393 11.646h7.8a16 16 0 0 0 15.4-11.646l12.7-44.938a63.994 63.994 0 0 0 -32.942-119.409z" fill="#eb423f"/><circle cx="424" cy="152" fill="#a82a27" r="16"/><path d="m87.058 184.007a63.994 63.994 0 0 0 -31.058 119.409l12.707 44.938a16 16 0 0 0 15.393 11.646h7.8a16 16 0 0 0 15.4-11.646l12.7-44.938a63.994 63.994 0 0 0 -32.942-119.409z" fill="#eb423f"/><circle cx="88" cy="248" fill="#a82a27" r="16"/></svg>