<svg id="Flat" height="512" viewBox="0 0 512 512" width="512" xmlns="http://www.w3.org/2000/svg"><path d="m384 472h-264l24-32h216z" fill="#464c4f"/><path d="m344 408h-176l16-32h144z" fill="#464c4f"/><path d="m416 312v64a16 16 0 0 1 -16 16h-80v-16h-128v16h-80a16 16 0 0 1 -16-16v-64l14.32-257.78a32 32 0 0 1 31.95-30.22h227.46a32 32 0 0 1 31.95 30.22z" fill="#e9eef2"/><path d="m401.78 56h-291.56l.1-1.78a32 32 0 0 1 31.95-30.22h227.46a32 32 0 0 1 31.95 30.22z" fill="#596063"/><path d="m416 312v64a16 16 0 0 1 -16 16h-80v-16h-128v16h-80a16 16 0 0 1 -16-16v-64z" fill="#2978b8"/><path d="m144 56v96a32 32 0 0 0 32 32h160a32 32 0 0 0 32-32v-96z" fill="#7e8589"/><path d="m96 312h320v32h-320z" fill="#3397e8"/><path d="m160 216v48l-60.49-15.12 2.63-47.35z" fill="#ffd33a"/><path d="m412.49 248.88-60.49 15.12v-48l57.86-14.47z" fill="#ffd33a"/><path d="m192 272v40h-96l3.51-63.12 60.49 15.12z" fill="#eb423f"/><path d="m416 312h-96v-40l32-8 60.49-15.12z" fill="#eb423f"/><g fill="#596063"><path d="m96 488h32l64-96h-32z"/><path d="m416 488h-32l-64-96h32z"/><path d="m184 56h16v256h-16z"/><path d="m312 56h16v256h-16z"/></g></svg>