<svg id="Flat" height="512" viewBox="0 0 512 512" width="512" xmlns="http://www.w3.org/2000/svg"><path d="m256 456h-26.087l66.087-152h-80l-64 184h120v-16a16 16 0 0 0 -16-16z" fill="#6a7073"/><path d="m292.023 162.058 27.977 69.942 56 32h16a16 16 0 0 1 16 16v16a16 16 0 0 1 -16 16h-16l-80-48-48-112h29.167a16 16 0 0 1 14.856 10.058z" fill="#6a7073"/><path d="m348.87 456-52.87-152v-136a16 16 0 0 0 -16-16h-66.081a16 16 0 0 0 -10.413 3.852l-51.506 44.148-48 80v16a16 16 0 0 0 16 16h16a16 16 0 0 0 16-16v-16l32-56 32-24v104l80 184h96v-16a16 16 0 0 0 -16-16z" fill="#7e8589"/><path d="m240 112h32v40h-32z" fill="#6a7073"/><rect fill="#7e8589" height="96" rx="32" width="80" x="216" y="24"/></svg>